<svg id="Layer_3" data-name="Layer 3" xmlns="http://www.w3.org/2000/svg" viewBox="0 0 100 100"><title>icon3</title><g id="Power-page"><g id="_1572-AB-Brand-Power-home-pg-v4" data-name="1572-AB-Brand-Power-home-pg-v4"><g id="_3-intro-with-pictograms" data-name="3-intro-with-pictograms"><g id="ideograms_data_analytics-05" data-name="ideograms/data/analytics-05"><path id="Fill-1" d="M73.39,58.09l-17-30.76a1,1,0,0,0-1-.5,1,1,0,0,0-.84.67L41.29,67.85,29.15,49a.91.91,0,0,0-.89-.45,1,1,0,0,0-.82.56L10.28,85.81v-77H8.33v81.4a1,1,0,0,0,1,1H90.94v-2H10.84L28.46,51.53l12.3,19.1a1,1,0,0,0,.94.44,1,1,0,0,0,.81-.66L55.73,30.24,72.51,60.55a1,1,0,0,0,.85.5.94.94,0,0,0,.85-.48l17.46-30.2-1.69-1Z" style="fill:#054ada"/></g></g></g></g></svg>