<svg id="Layer_1" data-name="Layer 1" xmlns="http://www.w3.org/2000/svg" viewBox="0 0 100 100"><title>Artboard 1</title><g id="Power-page"><g id="_1572-AB-Brand-Power-home-pg-v4" data-name="1572-AB-Brand-Power-home-pg-v4"><g id="_3-intro-with-pictograms" data-name="3-intro-with-pictograms"><g id="ideograms_deployment_cloud-upload" data-name="ideograms/deployment/cloud-upload"><path id="Fill-7" d="M48.91,41.78l-18,18-1.59-1.59L50,37.47,70.71,58.16l-1.59,1.59-18-18V92.19H48.91ZM78.68,70.59h-.3a1.21,1.21,0,0,1-1.13-1.18,1,1,0,0,1,1-1.08h.28a17.06,17.06,0,0,0,1.3-34.08,1.12,1.12,0,0,1-1-1.07,22.26,22.26,0,0,0-42.41-8.26,1.12,1.12,0,0,1-1.45.57A22.29,22.29,0,0,0,4.21,46.11,22.44,22.44,0,0,0,23.47,68.33a1.13,1.13,0,0,1,1,1.27,1.11,1.11,0,0,1-1.27,1A24.6,24.6,0,1,1,34.84,23,24.5,24.5,0,0,1,81,32.09a19.32,19.32,0,0,1-2.31,38.5Z" style="fill:#054ada"/></g></g></g></g></svg>