<?xml version="1.0" encoding="UTF-8"?>
<!-- Generator: Adobe Illustrator 21.0.0, SVG Export Plug-In . SVG Version: 6.00 Build 0)  -->
<svg version="1.1" id="Layer_1" xmlns="http://www.w3.org/2000/svg" xmlns:xlink="http://www.w3.org/1999/xlink" x="0px" y="0px" viewBox="0 0 80 80" style="enable-background:new 0 0 80 80;" xml:space="preserve">
<style type="text/css">
	.st0{fill:none;stroke:#003BC9;stroke-width:2;stroke-linecap:round;}
	.st1{fill:none;stroke:#323232;stroke-width:2;stroke-linecap:round;stroke-linejoin:round;}
</style>
<title>icon</title>
<desc>Created with Sketch.</desc>
<g id="Page-1">
	<g id="Power-home-040618a" transform="translate(-695.000000, -722.000000)">
		<g id="Band-1" transform="translate(0.000000, 478.000000)">
			<g id="Group-2" transform="translate(521.000000, 245.000000)">
				<g id="icon" transform="translate(175.000000, 0.000000)">
					<path id="Stroke-1" class="st0" d="M38.6,56c-14.9,0-27.1-12.2-27.1-27.1S23.6,1.8,38.6,1.8c14.9,0,27.1,12.2,27.1,27.1       S53.5,56,38.6,56z"/>
					<path id="Stroke-3" class="st0" d="M56,76.3l-17.1-10l-17.1,10l3.8-23.8c4,2.2,8.6,3.4,13.5,3.4c4.7,0,9.2-1.2,13.1-3.2       L56,76.3z"/>
					<polyline id="Stroke-5" class="st1" points="26.1,29.4 35.8,39.1 54.9,20.1      "/>
				</g>
			</g>
		</g>
	</g>
</g>
</svg>