<svg id="Layer_2" data-name="Layer 2" xmlns="http://www.w3.org/2000/svg" viewBox="0 0 100 100"><title>icon2</title><g id="Power-page"><g id="_1572-AB-Brand-Power-home-pg-v4" data-name="1572-AB-Brand-Power-home-pg-v4"><g id="_3-intro-with-pictograms" data-name="3-intro-with-pictograms"><g id="ideograms_infrastructure_integration-03" data-name="ideograms/infrastructure/integration-03"><path id="Fill-32" d="M60.83,57.55l-9.71,5.6V78.63a8.91,8.91,0,0,1,6,3.47l17.12-9.89a9,9,0,0,1,0-6.92ZM62,55.6l13.41,7.74a9,9,0,0,1,6-3.46V40.12a9,9,0,0,1-6-3.46L62,44.4ZM48.87,63.15l-9.7-5.6-13.4,7.74a9,9,0,0,1,0,6.92l17.12,9.88a9,9,0,0,1,6-3.46ZM38.05,55.6V44.4L24.64,36.66a9,9,0,0,1-6,3.46V59.88a9,9,0,0,1,6,3.46Zm1.12-13.15,9.7-5.6V21.37a9,9,0,0,1-6-3.46L25.77,27.79a9,9,0,0,1,0,6.92Zm11.95-5.6,9.71,5.6,13.4-7.74a9,9,0,0,1,0-6.92L57.11,17.91a9,9,0,0,1-6,3.46Zm32.48,23a8.94,8.94,0,1,1-8.24,14.28L58.24,84a8.94,8.94,0,1,1-16.48,0L24.64,74.16A8.94,8.94,0,1,1,16.4,59.88V40.12a8.94,8.94,0,1,1,8.24-14.28L41.76,16a8.94,8.94,0,1,1,16.48,0l17.12,9.88A8.94,8.94,0,1,1,83.6,40.12ZM40.3,55.6,50,61.2l9.7-5.6V44.4L50,38.8l-9.7,5.6ZM50,5.81a6.69,6.69,0,1,0,6.69,6.69A6.7,6.7,0,0,0,50,5.81Zm0,75a6.69,6.69,0,1,0,6.69,6.69A6.7,6.7,0,0,0,50,80.81ZM17.52,24.56a6.69,6.69,0,1,0,6.69,6.69A6.69,6.69,0,0,0,17.52,24.56Zm65,0a6.69,6.69,0,1,0,6.68,6.69A6.7,6.7,0,0,0,82.48,24.56Zm-65,37.5a6.69,6.69,0,1,0,6.69,6.69A6.69,6.69,0,0,0,17.52,62.06Zm65,0a6.69,6.69,0,1,0,6.68,6.69A6.7,6.7,0,0,0,82.48,62.06Z" style="fill:#054ada"/></g></g></g></g></svg>