<?xml version="1.0" encoding="UTF-8"?>
<!-- Generator: Adobe Illustrator 21.0.0, SVG Export Plug-In . SVG Version: 6.00 Build 0)  -->
<svg version="1.1" id="Layer_1" xmlns="http://www.w3.org/2000/svg" xmlns:xlink="http://www.w3.org/1999/xlink" x="0px" y="0px" viewBox="0 0 80 80" style="enable-background:new 0 0 80 80;" xml:space="preserve">
<style type="text/css">
	.st0{fill:#323232;}
	.st1{fill:none;stroke:#323232;}
	.st2{fill:none;stroke:#003BC9;stroke-width:2;stroke-linecap:round;}
</style>
<title>icon-performance</title>
<desc>Created with Sketch.</desc>
<g id="Page-1">
	<g id="Power-home-040618a" transform="translate(-1151.000000, -722.000000)">
		<g id="Band-1" transform="translate(0.000000, 478.000000)">
			<g id="Group-3" transform="translate(984.000000, 245.000000)">
				<g id="icon-performance" transform="translate(168.000000, 0.000000)">
					<g id="icon">
						<path id="Fill-1" class="st0" d="M64.2,27.8l-3.9,0.6l-0.1-0.9l5.7-0.8l0.4,5.7l-1,0.1l-0.3-3.9L42.8,56.4L28.9,45.8L10,67.5        c-0.1,0.1-0.3,0.2-0.4,0.2c-0.1,0-0.3,0-0.4-0.1C9,67.3,9,67,9.2,66.7l19.6-22.4l13.8,10.5L64.2,27.8z"/>
						<path id="Stroke-3" class="st1" d="M64.2,27.8l-3.9,0.6l-0.1-0.9l5.7-0.8l0.4,5.7l-1,0.1l-0.3-3.9L42.8,56.4L28.9,45.8        L10,67.5c-0.1,0.1-0.3,0.2-0.4,0.2c-0.1,0-0.3,0-0.4-0.1C9,67.3,9,67,9.2,66.7l19.6-22.4l13.8,10.5L64.2,27.8z"/>
						<polyline id="Stroke-5" class="st2" points="1.7,2.7 1.7,76.8 76,76.8       "/>
					</g>
				</g>
			</g>
		</g>
	</g>
</g>
</svg>