<?xml version="1.0" encoding="utf-8"?>
<!-- Generator: Adobe Illustrator 21.0.0, SVG Export Plug-In . SVG Version: 6.00 Build 0)  -->
<svg version="1.1" id="Layer_1" xmlns="http://www.w3.org/2000/svg" xmlns:xlink="http://www.w3.org/1999/xlink" x="0px" y="0px"
	 viewBox="0 0 80 80" style="enable-background:new 0 0 80 80;" xml:space="preserve">
<style type="text/css">
	.st0{fill:none;stroke:#0040CC;stroke-width:2;}
	.st1{fill:#FFFFFF;}
	.st2{fill:none;stroke:#323232;stroke-width:2;stroke-linecap:round;stroke-linejoin:round;}
</style>
<title>cloud icon</title>
<desc>Created with Sketch.</desc>
<g id="Page-1">
	<g id="Power-home-040618a" transform="translate(-215.000000, -724.000000)">
		<g id="Band-1" transform="translate(0.000000, 478.000000)">
			<g id="Group-1" transform="translate(55.000000, 247.000000)">
				<g id="cloud-icon" transform="translate(161.000000, 0.000000)">
					<path id="Combined-Shape" class="st0" d="M21.7,32.4C23,22.6,31.3,15,41.5,15c10.4,0,18.9,7.9,19.9,18c9,0.5,16.1,7.9,16.1,17
						c0,9.4-7.6,17-17,17c-0.3,0-42.3,0-42.5,0C8.3,67,0.5,59.2,0.5,49.5S8.3,32,18,32C19.3,32,20.5,32.1,21.7,32.4z"/>
					<rect id="Rectangle-11" x="28.5" y="60" class="st1" width="20" height="18"/>
					<g id="Group-4" transform="translate(29.000000, 27.000000)">
						<path id="Stroke-3-Copy" class="st2" d="M9.5,16v34.1"/>
						<g>
							<path id="Stroke-7-Copy" class="st2" d="M0.4,24.2L9.6,15h0l9.2,9.2"/>
						</g>
					</g>
				</g>
			</g>
		</g>
	</g>
</g>
</svg>
